<svg width="134" height="142" viewBox="0 0 134 142" fill="none" xmlns="http://www.w3.org/2000/svg">
<path d="M83.895 24.3376C84.5227 28.8409 84.3633 33.2674 84.3761 37.6841C84.4021 46.7045 84.3675 55.7253 84.4266 64.7455C84.4355 66.1046 84.0096 66.7759 82.8946 67.3007C75.4604 70.7996 68.0627 74.3923 60.6294 77.8936C58.3694 78.9581 56.7246 80.5138 56.0902 83.2231C55.1396 87.2835 58.8795 92.1231 62.8401 90.6631C65.7143 89.6035 68.5141 88.3469 71.2819 87.0032C79.6268 82.952 88.052 79.0993 96.2573 74.7035C107.045 68.9244 116.424 61.1549 124.18 51.0665C126.993 47.4076 129.293 43.3587 131.559 39.2856C131.85 38.763 132.14 38.2392 132.45 37.7305C132.659 37.3872 132.943 37.1242 133.352 37.2679C133.74 37.4045 133.869 37.7814 133.929 38.1862C133.948 38.3149 133.948 38.4482 133.947 38.5793C133.907 44.5307 134.219 50.4971 133.672 56.4289C132.749 66.4386 129.926 75.7292 124.58 83.997C118.838 92.8769 111.344 99.4502 102.441 104.116C95.1492 107.937 87.5344 110.761 79.5953 112.435C71.5843 114.123 63.5867 114.33 55.7795 111.254C47.1698 107.861 41.2077 101.584 39.2228 91.5474C37.6666 83.6787 39.1691 76.3258 43.4266 69.7451C48.3232 62.1764 53.7779 55.0782 58.9552 47.7458C59.3455 47.193 60.1672 46.6611 59.7558 45.8774C59.3947 45.1896 58.5103 45.4006 57.8666 45.4271C53.2828 45.6162 48.6969 45.5877 44.1154 45.48C36.2222 45.2943 28.3202 45.6873 20.4394 45.3085C11.3294 44.8707 4.42594 40.2908 0.421753 31.0182C0.215216 30.5399 0.070839 30.0489 0.0161696 29.5174C-0.0881357 28.5035 0.312203 27.908 1.21686 27.7686C1.76644 27.684 2.32791 27.6644 2.88409 27.6637C11.3361 27.6541 19.7881 27.6543 28.2401 27.6476C30.1886 27.646 30.1357 27.6288 30.4443 25.5206C32.1114 14.1313 37.7228 6.03388 47.5358 1.86766C53.8923 -0.83109 60.4195 -0.49941 66.799 2.18184C76.1411 6.1083 81.4583 13.8163 83.895 24.3376ZM59.8556 23.7411C59.9326 19.2929 56.1147 16.2302 52.2554 17.6444C49.5657 18.6299 48.0939 21.4522 48.5618 24.7271C48.965 27.5498 51.3758 29.7211 54.0833 29.7001C57.0111 29.6774 59.0111 27.6772 59.8556 23.7411Z" fill="white" fill-opacity="0.14"/>
<path d="M101.723 117.93C104.977 116.345 108.079 114.648 111.075 112.723C111.281 112.591 111.491 112.462 111.71 112.36C112.126 112.167 112.585 112.021 112.938 112.425C113.313 112.855 113.097 113.348 112.846 113.746C112.304 114.609 111.738 115.457 111.151 116.284C104.685 125.393 96.8076 132.552 87.0463 137.011C81.0155 139.766 74.7295 141.433 68.1761 141.796C56.2906 142.455 45.1805 139.593 35.2053 132.43C24.1038 124.458 16.559 113.464 14.5838 98.8563C12.6686 84.6924 15.7806 71.899 25.4783 61.6585C27.316 59.718 29.261 57.8437 31.9381 57.4175C33.7877 57.1231 35.6424 57.2604 37.477 57.3676C37.631 58.1324 37.1613 58.3618 36.8885 58.6915C31.3006 65.445 27.99 73.28 27.2072 82.4326C26.6429 89.0319 27.4753 95.3606 29.8243 101.413C32.3519 107.924 36.4096 113.178 41.5933 117.328C47.8157 122.309 54.8187 125.084 62.4913 125.879C73.6031 127.032 84.3007 124.982 94.741 120.932C97.0678 120.03 99.3411 118.96 101.723 117.93Z" fill="white" fill-opacity="0.14"/>
</svg>
