<svg width="204" height="210" viewBox="0 0 204 210" fill="none" xmlns="http://www.w3.org/2000/svg">
<path d="M127.68 36.0015C128.631 42.663 128.389 49.2108 128.409 55.7442C128.448 69.0877 128.396 82.4318 128.485 95.7748C128.499 97.7853 127.854 98.7783 126.165 99.5546C114.906 104.73 103.702 110.045 92.4439 115.224C89.0211 116.799 86.53 119.1 85.5693 123.108C84.1295 129.114 89.7937 136.273 95.7921 134.113C100.145 132.546 104.385 130.687 108.577 128.7C121.216 122.707 133.976 117.008 146.403 110.505C162.74 101.957 176.945 90.4634 188.692 75.5401C192.953 70.1278 196.436 64.1384 199.868 58.1132C200.308 57.3402 200.748 56.5654 201.217 55.8129C201.534 55.305 201.964 54.916 202.583 55.1286C203.171 55.3306 203.367 55.8882 203.458 56.487C203.487 56.6774 203.486 56.8745 203.485 57.0684C203.424 65.8721 203.897 74.6979 203.068 83.4726C201.67 98.2794 197.395 112.022 189.298 124.253C180.602 137.388 169.252 147.112 155.768 154.014C144.725 159.666 133.192 163.844 121.168 166.319C109.035 168.816 96.9229 169.123 85.0986 164.572C72.0591 159.553 63.0295 150.268 60.0233 135.422C57.6664 123.782 59.942 112.905 66.3899 103.17C73.806 91.9744 82.0673 81.4745 89.9083 70.6281C90.4995 69.8103 91.7439 69.0235 91.1208 67.8641C90.574 66.8467 89.2345 67.1588 88.2596 67.1981C81.3173 67.4778 74.3719 67.4356 67.4331 67.2763C55.4788 67.0017 43.5111 67.5829 31.5755 67.0226C17.7782 66.375 7.32279 59.6003 1.25838 45.8837C0.945578 45.1762 0.726916 44.4498 0.644118 43.6637C0.486146 42.1638 1.09247 41.2829 2.46259 41.0768C3.29493 40.9516 4.14529 40.9225 4.98764 40.9216C17.7884 40.9073 30.5891 40.9076 43.3898 40.8977C46.3409 40.8954 46.2607 40.8699 46.7281 37.7514C49.2529 20.9037 57.7515 8.92562 72.6134 2.76274C82.2405 -1.22939 92.1261 -0.738753 101.788 3.22749C115.937 9.0357 123.99 20.4377 127.68 36.0015ZM91.2719 35.119C91.3886 28.5391 85.6063 24.0086 79.7614 26.1005C75.6878 27.5584 73.4587 31.7332 74.1673 36.5775C74.7781 40.7531 78.4292 43.965 82.5297 43.9339C86.964 43.9004 89.9929 40.9415 91.2719 35.119Z" fill="black"/>
<path d="M154.68 174.448C159.609 172.103 164.306 169.593 168.844 166.746C169.156 166.55 169.474 166.359 169.807 166.209C170.437 165.923 171.131 165.708 171.665 166.305C172.234 166.94 171.906 167.67 171.527 168.259C170.705 169.536 169.849 170.79 168.959 172.014C159.166 185.488 147.236 196.077 132.453 202.674C123.319 206.749 113.798 209.215 103.873 209.752C85.8724 210.727 69.046 206.493 53.9384 195.897C37.1249 184.104 25.6982 167.842 22.7067 146.233C19.8061 125.281 24.5193 106.357 39.2067 91.2086C41.9899 88.3381 44.9355 85.5656 48.9901 84.9351C51.7914 84.4995 54.6003 84.7027 57.379 84.8612C57.6121 85.9926 56.9007 86.3319 56.4875 86.8196C48.0246 96.8098 43.0107 108.4 41.8252 121.939C40.9704 131.701 42.2311 141.062 45.7887 150.015C49.6168 159.648 55.7623 167.419 63.6132 173.558C73.037 180.926 83.6432 185.03 95.2635 186.207C112.092 187.912 128.294 184.88 144.106 178.889C147.63 177.554 151.073 175.973 154.68 174.448Z" fill="black"/>
</svg>
