<svg width="250" height="140" viewBox="0 0 250 140" fill="none" xmlns="http://www.w3.org/2000/svg">
<path d="M242.006 140H7.99364C3.57861 140 0 136.465 0 132.105V7.89518C0 3.53501 3.57861 0 7.99364 0H242.006C246.42 0 250 3.53453 250 7.89518V132.105C250 136.465 246.421 140 242.006 140Z" fill="#5EA570"/>
<path d="M222.127 99.7703C222.806 99.7153 223.326 99.1559 223.326 98.4831V41.5168C223.326 40.845 222.805 40.2846 222.127 40.2297C215.088 39.6591 209.477 34.1097 208.911 27.154C208.857 26.4971 208.303 25.9937 207.636 25.9937H42.3916C41.7114 25.9937 41.144 26.5087 41.0884 27.1781C40.5112 34.1222 34.9048 39.6596 27.874 40.2297C27.1948 40.2846 26.6748 40.8441 26.6748 41.5168V98.4831C26.6748 99.1549 27.1963 99.7153 27.874 99.7703C34.9048 100.34 40.5112 105.878 41.0884 112.822C41.144 113.493 41.7104 114.006 42.3916 114.006H207.609C208.29 114.006 208.857 113.491 208.913 112.822C209.49 105.878 215.096 100.34 222.127 99.7703Z" fill="#8BC852"/>
<path d="M125 125.927C156.273 125.927 181.624 100.888 181.624 70.0003C181.624 39.1129 156.273 14.0737 125 14.0737C93.7274 14.0737 68.376 39.1129 68.376 70.0003C68.376 100.888 93.7274 125.927 125 125.927Z" fill="#CBE7AF"/>
<path d="M138.279 43.6956C138.684 46.3066 138.581 48.8731 138.589 51.434C138.606 56.6641 138.584 61.8944 138.622 67.1243C138.628 67.9124 138.353 68.3016 137.634 68.6059C132.839 70.6346 128.067 72.7177 123.273 74.7477C121.815 75.3649 120.754 76.2669 120.345 77.8378C119.732 80.192 122.144 82.9981 124.699 82.1515C126.553 81.5372 128.358 80.8086 130.144 80.0296C135.526 77.6806 140.96 75.4468 146.253 72.8981C153.21 69.5473 159.26 65.0425 164.263 59.1932C166.077 57.0717 167.56 54.7242 169.022 52.3625C169.21 52.0595 169.397 51.7558 169.597 51.4609C169.732 51.2618 169.915 51.1094 170.178 51.1927C170.429 51.2719 170.512 51.4904 170.551 51.7251C170.563 51.7997 170.563 51.877 170.563 51.953C170.537 55.4037 170.738 58.8631 170.385 62.3024C169.79 68.1061 167.969 73.4928 164.521 78.2865C160.817 83.4352 155.983 87.2464 150.241 89.9516C145.538 92.1673 140.626 93.8047 135.506 94.7748C130.339 95.7537 125.18 95.874 120.145 94.0901C114.591 92.1228 110.746 88.4834 109.466 82.6643C108.462 78.1019 109.431 73.8387 112.177 70.0232C115.335 65.6348 118.854 61.5192 122.193 57.2678C122.445 56.9473 122.975 56.6389 122.709 56.1845C122.476 55.7857 121.906 55.908 121.491 55.9234C118.534 56.033 115.576 56.0165 112.621 55.9541C107.53 55.8464 102.433 56.0743 97.3503 55.8547C91.4744 55.6008 87.0217 52.9454 84.439 47.569C84.3058 47.2917 84.2127 47.007 84.1774 46.6989C84.1101 46.111 84.3684 45.7657 84.9519 45.6849C85.3063 45.6358 85.6685 45.6245 86.0272 45.6241C91.4787 45.6185 96.9303 45.6186 102.382 45.6147C103.639 45.6138 103.604 45.6038 103.803 44.3815C104.879 37.7779 108.498 33.083 114.827 30.6674C118.927 29.1026 123.137 29.2949 127.252 30.8495C133.278 33.1261 136.707 37.5952 138.279 43.6956ZM122.774 43.3497C122.823 40.7706 120.361 38.9949 117.872 39.8148C116.137 40.3862 115.187 42.0226 115.489 43.9214C115.749 45.558 117.304 46.817 119.051 46.8048C120.939 46.7917 122.229 45.6319 122.774 43.3497Z" fill="#5EA570"/>
<path d="M149.777 97.961C151.877 97.0421 153.877 96.0582 155.81 94.9423C155.942 94.8656 156.078 94.7906 156.219 94.7317C156.488 94.6198 156.783 94.5354 157.011 94.7696C157.253 95.0185 157.114 95.3046 156.952 95.5354C156.602 96.0358 156.237 96.5273 155.859 97.007C151.688 102.288 146.607 106.439 140.311 109.025C136.421 110.622 132.367 111.588 128.14 111.799C120.474 112.181 113.308 110.522 106.874 106.368C99.7135 101.746 94.8471 95.3719 93.5731 86.9022C92.3378 78.6899 94.3451 71.2722 100.6 65.3347C101.785 64.2096 103.04 63.1229 104.767 62.8758C105.96 62.705 107.156 62.7847 108.339 62.8468C108.438 63.2902 108.136 63.4232 107.96 63.6144C104.355 67.5301 102.22 72.0729 101.715 77.3796C101.351 81.206 101.888 84.8754 103.403 88.3843C105.033 92.16 107.651 95.2061 110.994 97.6122C115.008 100.5 119.524 102.109 124.473 102.57C131.64 103.239 138.54 102.05 145.274 99.702C146.775 99.1787 148.241 98.5588 149.777 97.961Z" fill="#5EA570"/>
</svg>
